<mxfile host="app.diagrams.net" modified="2023-06-14T17:31:53.449Z" agent="Mozilla/5.0 (Windows NT 10.0; Win64; x64) AppleWebKit/537.36 (KHTML, like Gecko) Chrome/112.0.0.0 Safari/537.36 OPR/98.0.0.0" etag="qs2ru917l9xmNNU-mMk0" version="21.3.8" type="github">
  <diagram id="C5RBs43oDa-KdzZeNtuy" name="Page-1">
    <mxGraphModel dx="1187" dy="638" grid="1" gridSize="10" guides="1" tooltips="1" connect="1" arrows="1" fold="1" page="1" pageScale="1" pageWidth="827" pageHeight="1169" math="0" shadow="0">
      <root>
        <mxCell id="WIyWlLk6GJQsqaUBKTNV-0" />
        <mxCell id="WIyWlLk6GJQsqaUBKTNV-1" parent="WIyWlLk6GJQsqaUBKTNV-0" />
        <mxCell id="EJpG7dNDgXVxEDcTbUmV-0" value="Produit" style="swimlane;fontStyle=2;align=center;verticalAlign=top;childLayout=stackLayout;horizontal=1;startSize=26;horizontalStack=0;resizeParent=1;resizeLast=0;collapsible=1;marginBottom=0;rounded=0;shadow=0;strokeWidth=1;" vertex="1" parent="WIyWlLk6GJQsqaUBKTNV-1">
          <mxGeometry x="420" y="140" width="140" height="118" as="geometry">
            <mxRectangle x="230" y="140" width="160" height="26" as="alternateBounds" />
          </mxGeometry>
        </mxCell>
        <mxCell id="EJpG7dNDgXVxEDcTbUmV-1" value="+produitID : entier&#xa;+nom : chaîne&#xa;+prix : float&#xa;+prixPromotionnel : float&#xa;+stock : entier" style="text;align=left;verticalAlign=top;spacingLeft=4;spacingRight=4;overflow=hidden;rotatable=0;points=[[0,0.5],[1,0.5]];portConstraint=eastwest;" vertex="1" parent="EJpG7dNDgXVxEDcTbUmV-0">
          <mxGeometry y="26" width="140" height="84" as="geometry" />
        </mxCell>
        <mxCell id="EJpG7dNDgXVxEDcTbUmV-2" value="" style="line;html=1;strokeWidth=1;align=left;verticalAlign=middle;spacingTop=-1;spacingLeft=3;spacingRight=3;rotatable=0;labelPosition=right;points=[];portConstraint=eastwest;" vertex="1" parent="EJpG7dNDgXVxEDcTbUmV-0">
          <mxGeometry y="110" width="140" height="8" as="geometry" />
        </mxCell>
        <mxCell id="EJpG7dNDgXVxEDcTbUmV-3" value="Travaille dans" style="edgeStyle=orthogonalEdgeStyle;rounded=0;orthogonalLoop=1;jettySize=auto;html=1;exitX=0.5;exitY=0;exitDx=0;exitDy=0;entryX=0.5;entryY=1;entryDx=0;entryDy=0;endArrow=none;endFill=0;" edge="1" parent="WIyWlLk6GJQsqaUBKTNV-1" source="EJpG7dNDgXVxEDcTbUmV-4" target="EJpG7dNDgXVxEDcTbUmV-26">
          <mxGeometry relative="1" as="geometry" />
        </mxCell>
        <mxCell id="EJpG7dNDgXVxEDcTbUmV-4" value="Employé" style="swimlane;fontStyle=2;align=center;verticalAlign=top;childLayout=stackLayout;horizontal=1;startSize=26;horizontalStack=0;resizeParent=1;resizeLast=0;collapsible=1;marginBottom=0;rounded=0;shadow=0;strokeWidth=1;" vertex="1" parent="WIyWlLk6GJQsqaUBKTNV-1">
          <mxGeometry x="752" y="490" width="140" height="108" as="geometry">
            <mxRectangle x="230" y="140" width="160" height="26" as="alternateBounds" />
          </mxGeometry>
        </mxCell>
        <mxCell id="EJpG7dNDgXVxEDcTbUmV-5" value="+employeID : entier&#xa;+nom : string&#xa;+poste : string&#xa;+salaire : float&#xa;+dateEmbauche : date" style="text;align=left;verticalAlign=top;spacingLeft=4;spacingRight=4;overflow=hidden;rotatable=0;points=[[0,0.5],[1,0.5]];portConstraint=eastwest;" vertex="1" parent="EJpG7dNDgXVxEDcTbUmV-4">
          <mxGeometry y="26" width="140" height="74" as="geometry" />
        </mxCell>
        <mxCell id="EJpG7dNDgXVxEDcTbUmV-6" value="" style="line;html=1;strokeWidth=1;align=left;verticalAlign=middle;spacingTop=-1;spacingLeft=3;spacingRight=3;rotatable=0;labelPosition=right;points=[];portConstraint=eastwest;" vertex="1" parent="EJpG7dNDgXVxEDcTbUmV-4">
          <mxGeometry y="100" width="140" height="8" as="geometry" />
        </mxCell>
        <mxCell id="EJpG7dNDgXVxEDcTbUmV-7" value="Catégorie" style="swimlane;fontStyle=2;align=center;verticalAlign=top;childLayout=stackLayout;horizontal=1;startSize=26;horizontalStack=0;resizeParent=1;resizeLast=0;collapsible=1;marginBottom=0;rounded=0;shadow=0;strokeWidth=1;" vertex="1" parent="WIyWlLk6GJQsqaUBKTNV-1">
          <mxGeometry x="150" y="150" width="140" height="88" as="geometry">
            <mxRectangle x="230" y="140" width="160" height="26" as="alternateBounds" />
          </mxGeometry>
        </mxCell>
        <mxCell id="EJpG7dNDgXVxEDcTbUmV-8" value="+categorieID : entier&#xa;+nom : string&#xa;+tva : float" style="text;align=left;verticalAlign=top;spacingLeft=4;spacingRight=4;overflow=hidden;rotatable=0;points=[[0,0.5],[1,0.5]];portConstraint=eastwest;" vertex="1" parent="EJpG7dNDgXVxEDcTbUmV-7">
          <mxGeometry y="26" width="140" height="54" as="geometry" />
        </mxCell>
        <mxCell id="EJpG7dNDgXVxEDcTbUmV-9" value="" style="line;html=1;strokeWidth=1;align=left;verticalAlign=middle;spacingTop=-1;spacingLeft=3;spacingRight=3;rotatable=0;labelPosition=right;points=[];portConstraint=eastwest;" vertex="1" parent="EJpG7dNDgXVxEDcTbUmV-7">
          <mxGeometry y="80" width="140" height="8" as="geometry" />
        </mxCell>
        <mxCell id="EJpG7dNDgXVxEDcTbUmV-10" value="Client" style="swimlane;fontStyle=2;align=center;verticalAlign=top;childLayout=stackLayout;horizontal=1;startSize=26;horizontalStack=0;resizeParent=1;resizeLast=0;collapsible=1;marginBottom=0;rounded=0;shadow=0;strokeWidth=1;" vertex="1" parent="WIyWlLk6GJQsqaUBKTNV-1">
          <mxGeometry x="464" y="330" width="140" height="150" as="geometry">
            <mxRectangle x="230" y="140" width="160" height="26" as="alternateBounds" />
          </mxGeometry>
        </mxCell>
        <mxCell id="EJpG7dNDgXVxEDcTbUmV-11" value="+clientID : entier&#xa;+nom : string&#xa;+type : string&#xa;+adresse : string&#xa;+num : string&#xa;+mail : string" style="text;align=left;verticalAlign=top;spacingLeft=4;spacingRight=4;overflow=hidden;rotatable=0;points=[[0,0.5],[1,0.5]];portConstraint=eastwest;fontSize=10;" vertex="1" parent="EJpG7dNDgXVxEDcTbUmV-10">
          <mxGeometry y="26" width="140" height="74" as="geometry" />
        </mxCell>
        <mxCell id="EJpG7dNDgXVxEDcTbUmV-12" value="" style="line;html=1;strokeWidth=1;align=left;verticalAlign=middle;spacingTop=-1;spacingLeft=3;spacingRight=3;rotatable=0;labelPosition=right;points=[];portConstraint=eastwest;" vertex="1" parent="EJpG7dNDgXVxEDcTbUmV-10">
          <mxGeometry y="100" width="140" height="8" as="geometry" />
        </mxCell>
        <mxCell id="EJpG7dNDgXVxEDcTbUmV-13" value="+Commander ()&#xa;+Payer ()" style="text;align=left;verticalAlign=top;spacingLeft=4;spacingRight=4;overflow=hidden;rotatable=0;points=[[0,0.5],[1,0.5]];portConstraint=eastwest;" vertex="1" parent="EJpG7dNDgXVxEDcTbUmV-10">
          <mxGeometry y="108" width="140" height="42" as="geometry" />
        </mxCell>
        <mxCell id="EJpG7dNDgXVxEDcTbUmV-14" style="edgeStyle=orthogonalEdgeStyle;rounded=0;orthogonalLoop=1;jettySize=auto;html=1;exitX=0.5;exitY=0;exitDx=0;exitDy=0;endArrow=none;endFill=0;" edge="1" parent="WIyWlLk6GJQsqaUBKTNV-1" source="EJpG7dNDgXVxEDcTbUmV-16">
          <mxGeometry relative="1" as="geometry">
            <mxPoint x="464" y="400" as="targetPoint" />
            <Array as="points">
              <mxPoint x="240" y="400" />
              <mxPoint x="464" y="400" />
            </Array>
          </mxGeometry>
        </mxCell>
        <mxCell id="EJpG7dNDgXVxEDcTbUmV-15" value="Livrées chez" style="edgeLabel;html=1;align=center;verticalAlign=middle;resizable=0;points=[];" vertex="1" connectable="0" parent="EJpG7dNDgXVxEDcTbUmV-14">
          <mxGeometry x="-0.5419" y="2" relative="1" as="geometry">
            <mxPoint as="offset" />
          </mxGeometry>
        </mxCell>
        <mxCell id="EJpG7dNDgXVxEDcTbUmV-16" value="Commande" style="swimlane;fontStyle=2;align=center;verticalAlign=top;childLayout=stackLayout;horizontal=1;startSize=26;horizontalStack=0;resizeParent=1;resizeLast=0;collapsible=1;marginBottom=0;rounded=0;shadow=0;strokeWidth=1;" vertex="1" parent="WIyWlLk6GJQsqaUBKTNV-1">
          <mxGeometry x="170" y="480" width="140" height="90" as="geometry">
            <mxRectangle x="230" y="140" width="160" height="26" as="alternateBounds" />
          </mxGeometry>
        </mxCell>
        <mxCell id="EJpG7dNDgXVxEDcTbUmV-17" value="+commandeID : entier&#xa;+montant: float&#xa;+date : date" style="text;align=left;verticalAlign=top;spacingLeft=4;spacingRight=4;overflow=hidden;rotatable=0;points=[[0,0.5],[1,0.5]];portConstraint=eastwest;" vertex="1" parent="EJpG7dNDgXVxEDcTbUmV-16">
          <mxGeometry y="26" width="140" height="54" as="geometry" />
        </mxCell>
        <mxCell id="EJpG7dNDgXVxEDcTbUmV-18" value="" style="line;html=1;strokeWidth=1;align=left;verticalAlign=middle;spacingTop=-1;spacingLeft=3;spacingRight=3;rotatable=0;labelPosition=right;points=[];portConstraint=eastwest;" vertex="1" parent="EJpG7dNDgXVxEDcTbUmV-16">
          <mxGeometry y="80" width="140" height="8" as="geometry" />
        </mxCell>
        <mxCell id="EJpG7dNDgXVxEDcTbUmV-19" value="Travaille pour" style="edgeStyle=orthogonalEdgeStyle;rounded=0;orthogonalLoop=1;jettySize=auto;html=1;exitX=0.5;exitY=1;exitDx=0;exitDy=0;strokeColor=default;startArrow=none;startFill=0;endArrow=none;endFill=0;" edge="1" parent="WIyWlLk6GJQsqaUBKTNV-1" source="EJpG7dNDgXVxEDcTbUmV-20" target="EJpG7dNDgXVxEDcTbUmV-26">
          <mxGeometry relative="1" as="geometry" />
        </mxCell>
        <mxCell id="EJpG7dNDgXVxEDcTbUmV-20" value="Agence" style="swimlane;fontStyle=2;align=center;verticalAlign=top;childLayout=stackLayout;horizontal=1;startSize=26;horizontalStack=0;resizeParent=1;resizeLast=0;collapsible=1;marginBottom=0;rounded=0;shadow=0;strokeWidth=1;" vertex="1" parent="WIyWlLk6GJQsqaUBKTNV-1">
          <mxGeometry x="752" y="125" width="140" height="88" as="geometry">
            <mxRectangle x="230" y="140" width="160" height="26" as="alternateBounds" />
          </mxGeometry>
        </mxCell>
        <mxCell id="EJpG7dNDgXVxEDcTbUmV-21" value="+agenceID : entier&#xa;+adresse : string&#xa;+effectif : entier" style="text;align=left;verticalAlign=top;spacingLeft=4;spacingRight=4;overflow=hidden;rotatable=0;points=[[0,0.5],[1,0.5]];portConstraint=eastwest;" vertex="1" parent="EJpG7dNDgXVxEDcTbUmV-20">
          <mxGeometry y="26" width="140" height="44" as="geometry" />
        </mxCell>
        <mxCell id="EJpG7dNDgXVxEDcTbUmV-22" value="" style="line;html=1;strokeWidth=1;align=left;verticalAlign=middle;spacingTop=-1;spacingLeft=3;spacingRight=3;rotatable=0;labelPosition=right;points=[];portConstraint=eastwest;" vertex="1" parent="EJpG7dNDgXVxEDcTbUmV-20">
          <mxGeometry y="70" width="140" height="18" as="geometry" />
        </mxCell>
        <mxCell id="EJpG7dNDgXVxEDcTbUmV-23" value="Facture" style="swimlane;fontStyle=2;align=center;verticalAlign=top;childLayout=stackLayout;horizontal=1;startSize=26;horizontalStack=0;resizeParent=1;resizeLast=0;collapsible=1;marginBottom=0;rounded=0;shadow=0;strokeWidth=1;" vertex="1" parent="WIyWlLk6GJQsqaUBKTNV-1">
          <mxGeometry x="450" y="490" width="140" height="108" as="geometry">
            <mxRectangle x="230" y="140" width="160" height="26" as="alternateBounds" />
          </mxGeometry>
        </mxCell>
        <mxCell id="EJpG7dNDgXVxEDcTbUmV-24" value="+factureID : entier&#xa;+valeur : float&#xa;+état : booléen&#xa;+date : date" style="text;align=left;verticalAlign=top;spacingLeft=4;spacingRight=4;overflow=hidden;rotatable=0;points=[[0,0.5],[1,0.5]];portConstraint=eastwest;" vertex="1" parent="EJpG7dNDgXVxEDcTbUmV-23">
          <mxGeometry y="26" width="140" height="64" as="geometry" />
        </mxCell>
        <mxCell id="EJpG7dNDgXVxEDcTbUmV-25" value="" style="line;html=1;strokeWidth=1;align=left;verticalAlign=middle;spacingTop=-1;spacingLeft=3;spacingRight=3;rotatable=0;labelPosition=right;points=[];portConstraint=eastwest;" vertex="1" parent="EJpG7dNDgXVxEDcTbUmV-23">
          <mxGeometry y="90" width="140" height="18" as="geometry" />
        </mxCell>
        <mxCell id="EJpG7dNDgXVxEDcTbUmV-26" value="Service" style="swimlane;fontStyle=2;align=center;verticalAlign=top;childLayout=stackLayout;horizontal=1;startSize=26;horizontalStack=0;resizeParent=1;resizeLast=0;collapsible=1;marginBottom=0;rounded=0;shadow=0;strokeWidth=1;" vertex="1" parent="WIyWlLk6GJQsqaUBKTNV-1">
          <mxGeometry x="752" y="330" width="140" height="78" as="geometry">
            <mxRectangle x="230" y="140" width="160" height="26" as="alternateBounds" />
          </mxGeometry>
        </mxCell>
        <mxCell id="EJpG7dNDgXVxEDcTbUmV-27" value="+serviceID : entier&#xa;+fonction : string&#xa;+effectif : entier" style="text;align=left;verticalAlign=top;spacingLeft=4;spacingRight=4;overflow=hidden;rotatable=0;points=[[0,0.5],[1,0.5]];portConstraint=eastwest;" vertex="1" parent="EJpG7dNDgXVxEDcTbUmV-26">
          <mxGeometry y="26" width="140" height="44" as="geometry" />
        </mxCell>
        <mxCell id="EJpG7dNDgXVxEDcTbUmV-28" value="" style="line;html=1;strokeWidth=1;align=left;verticalAlign=middle;spacingTop=-1;spacingLeft=3;spacingRight=3;rotatable=0;labelPosition=right;points=[];portConstraint=eastwest;" vertex="1" parent="EJpG7dNDgXVxEDcTbUmV-26">
          <mxGeometry y="70" width="140" height="8" as="geometry" />
        </mxCell>
        <mxCell id="EJpG7dNDgXVxEDcTbUmV-29" value="Comprend" style="edgeStyle=orthogonalEdgeStyle;rounded=0;orthogonalLoop=1;jettySize=auto;html=1;endArrow=none;endFill=0;" edge="1" parent="WIyWlLk6GJQsqaUBKTNV-1">
          <mxGeometry relative="1" as="geometry">
            <mxPoint x="290" y="198" as="sourcePoint" />
            <mxPoint x="420" y="199" as="targetPoint" />
          </mxGeometry>
        </mxCell>
        <mxCell id="EJpG7dNDgXVxEDcTbUmV-30" value="1...*" style="text;html=1;align=center;verticalAlign=middle;resizable=0;points=[];autosize=1;strokeColor=none;fillColor=none;" vertex="1" parent="WIyWlLk6GJQsqaUBKTNV-1">
          <mxGeometry x="380" y="173" width="40" height="30" as="geometry" />
        </mxCell>
        <mxCell id="EJpG7dNDgXVxEDcTbUmV-31" value="1" style="text;html=1;align=center;verticalAlign=middle;resizable=0;points=[];autosize=1;strokeColor=none;fillColor=none;" vertex="1" parent="WIyWlLk6GJQsqaUBKTNV-1">
          <mxGeometry x="290" y="173" width="30" height="30" as="geometry" />
        </mxCell>
        <mxCell id="EJpG7dNDgXVxEDcTbUmV-32" value="*" style="text;html=1;align=center;verticalAlign=middle;resizable=0;points=[];autosize=1;strokeColor=none;fillColor=none;" vertex="1" parent="WIyWlLk6GJQsqaUBKTNV-1">
          <mxGeometry x="430" y="490" width="30" height="30" as="geometry" />
        </mxCell>
        <mxCell id="EJpG7dNDgXVxEDcTbUmV-33" value="1" style="text;html=1;align=center;verticalAlign=middle;resizable=0;points=[];autosize=1;strokeColor=none;fillColor=none;" vertex="1" parent="WIyWlLk6GJQsqaUBKTNV-1">
          <mxGeometry x="420" y="530" width="30" height="30" as="geometry" />
        </mxCell>
        <mxCell id="EJpG7dNDgXVxEDcTbUmV-34" value="1...*" style="text;html=1;align=center;verticalAlign=middle;resizable=0;points=[];autosize=1;strokeColor=none;fillColor=none;" vertex="1" parent="WIyWlLk6GJQsqaUBKTNV-1">
          <mxGeometry x="787" y="300" width="40" height="30" as="geometry" />
        </mxCell>
        <mxCell id="EJpG7dNDgXVxEDcTbUmV-35" value="1" style="text;html=1;align=center;verticalAlign=middle;resizable=0;points=[];autosize=1;strokeColor=none;fillColor=none;" vertex="1" parent="WIyWlLk6GJQsqaUBKTNV-1">
          <mxGeometry x="440" y="420" width="30" height="30" as="geometry" />
        </mxCell>
        <mxCell id="EJpG7dNDgXVxEDcTbUmV-36" value="*" style="text;html=1;align=center;verticalAlign=middle;resizable=0;points=[];autosize=1;strokeColor=none;fillColor=none;" vertex="1" parent="WIyWlLk6GJQsqaUBKTNV-1">
          <mxGeometry x="240" y="578" width="30" height="30" as="geometry" />
        </mxCell>
        <mxCell id="EJpG7dNDgXVxEDcTbUmV-37" value="1" style="text;html=1;align=center;verticalAlign=middle;resizable=0;points=[];autosize=1;strokeColor=none;fillColor=none;" vertex="1" parent="WIyWlLk6GJQsqaUBKTNV-1">
          <mxGeometry x="887" y="355" width="30" height="30" as="geometry" />
        </mxCell>
        <mxCell id="EJpG7dNDgXVxEDcTbUmV-38" value="1...*" style="text;html=1;align=center;verticalAlign=middle;resizable=0;points=[];autosize=1;strokeColor=none;fillColor=none;" vertex="1" parent="WIyWlLk6GJQsqaUBKTNV-1">
          <mxGeometry x="787" y="460" width="40" height="30" as="geometry" />
        </mxCell>
        <mxCell id="EJpG7dNDgXVxEDcTbUmV-39" value="1" style="text;html=1;align=center;verticalAlign=middle;resizable=0;points=[];autosize=1;strokeColor=none;fillColor=none;" vertex="1" parent="WIyWlLk6GJQsqaUBKTNV-1">
          <mxGeometry x="787" y="408" width="30" height="30" as="geometry" />
        </mxCell>
        <mxCell id="EJpG7dNDgXVxEDcTbUmV-40" value="1" style="text;html=1;align=center;verticalAlign=middle;resizable=0;points=[];autosize=1;strokeColor=none;fillColor=none;" vertex="1" parent="WIyWlLk6GJQsqaUBKTNV-1">
          <mxGeometry x="787" y="213" width="30" height="30" as="geometry" />
        </mxCell>
        <mxCell id="EJpG7dNDgXVxEDcTbUmV-41" value="Possède" style="edgeStyle=orthogonalEdgeStyle;rounded=0;orthogonalLoop=1;jettySize=auto;html=1;exitX=-0.053;exitY=0.093;exitDx=0;exitDy=0;endArrow=none;endFill=0;entryX=0.867;entryY=0.093;entryDx=0;entryDy=0;entryPerimeter=0;exitPerimeter=0;" edge="1" parent="WIyWlLk6GJQsqaUBKTNV-1" source="EJpG7dNDgXVxEDcTbUmV-42" target="EJpG7dNDgXVxEDcTbUmV-33">
          <mxGeometry relative="1" as="geometry" />
        </mxCell>
        <mxCell id="EJpG7dNDgXVxEDcTbUmV-42" value="1" style="text;html=1;align=center;verticalAlign=middle;resizable=0;points=[];autosize=1;strokeColor=none;fillColor=none;" vertex="1" parent="WIyWlLk6GJQsqaUBKTNV-1">
          <mxGeometry x="310" y="530" width="30" height="30" as="geometry" />
        </mxCell>
        <mxCell id="EJpG7dNDgXVxEDcTbUmV-43" value="Paye" style="edgeStyle=orthogonalEdgeStyle;rounded=0;orthogonalLoop=1;jettySize=auto;html=1;exitX=0;exitY=0.5;exitDx=0;exitDy=0;entryX=0;entryY=0.25;entryDx=0;entryDy=0;endArrow=none;endFill=0;" edge="1" parent="WIyWlLk6GJQsqaUBKTNV-1" source="EJpG7dNDgXVxEDcTbUmV-13" target="EJpG7dNDgXVxEDcTbUmV-23">
          <mxGeometry relative="1" as="geometry" />
        </mxCell>
        <mxCell id="EJpG7dNDgXVxEDcTbUmV-44" style="edgeStyle=orthogonalEdgeStyle;rounded=0;orthogonalLoop=1;jettySize=auto;html=1;exitX=1;exitY=0.5;exitDx=0;exitDy=0;entryX=0.5;entryY=1;entryDx=0;entryDy=0;endArrow=none;endFill=0;" edge="1" parent="WIyWlLk6GJQsqaUBKTNV-1" source="EJpG7dNDgXVxEDcTbUmV-27" target="EJpG7dNDgXVxEDcTbUmV-16">
          <mxGeometry relative="1" as="geometry">
            <Array as="points">
              <mxPoint x="930" y="378" />
              <mxPoint x="930" y="610" />
              <mxPoint x="240" y="610" />
            </Array>
          </mxGeometry>
        </mxCell>
        <mxCell id="EJpG7dNDgXVxEDcTbUmV-45" value="Traite" style="edgeLabel;html=1;align=center;verticalAlign=middle;resizable=0;points=[];" vertex="1" connectable="0" parent="EJpG7dNDgXVxEDcTbUmV-44">
          <mxGeometry x="0.2092" relative="1" as="geometry">
            <mxPoint as="offset" />
          </mxGeometry>
        </mxCell>
        <mxCell id="EJpG7dNDgXVxEDcTbUmV-46" value="1" style="text;html=1;align=center;verticalAlign=middle;resizable=0;points=[];autosize=1;strokeColor=none;fillColor=none;" vertex="1" parent="WIyWlLk6GJQsqaUBKTNV-1">
          <mxGeometry x="440" y="370" width="30" height="30" as="geometry" />
        </mxCell>
        <mxCell id="EJpG7dNDgXVxEDcTbUmV-47" value="*" style="text;html=1;align=center;verticalAlign=middle;resizable=0;points=[];autosize=1;strokeColor=none;fillColor=none;" vertex="1" parent="WIyWlLk6GJQsqaUBKTNV-1">
          <mxGeometry x="210" y="450" width="30" height="30" as="geometry" />
        </mxCell>
        <mxCell id="EJpG7dNDgXVxEDcTbUmV-48" style="edgeStyle=orthogonalEdgeStyle;rounded=0;orthogonalLoop=1;jettySize=auto;html=1;exitX=0.5;exitY=0;exitDx=0;exitDy=0;entryX=0.5;entryY=1;entryDx=0;entryDy=0;endArrow=none;endFill=0;" edge="1" parent="WIyWlLk6GJQsqaUBKTNV-1" source="EJpG7dNDgXVxEDcTbUmV-51" target="EJpG7dNDgXVxEDcTbUmV-0">
          <mxGeometry relative="1" as="geometry">
            <Array as="points">
              <mxPoint x="220" y="278" />
              <mxPoint x="490" y="278" />
            </Array>
          </mxGeometry>
        </mxCell>
        <mxCell id="EJpG7dNDgXVxEDcTbUmV-49" value="Concerne" style="edgeLabel;html=1;align=center;verticalAlign=middle;resizable=0;points=[];" vertex="1" connectable="0" parent="EJpG7dNDgXVxEDcTbUmV-48">
          <mxGeometry x="-0.0716" y="1" relative="1" as="geometry">
            <mxPoint as="offset" />
          </mxGeometry>
        </mxCell>
        <mxCell id="EJpG7dNDgXVxEDcTbUmV-50" style="edgeStyle=orthogonalEdgeStyle;rounded=0;orthogonalLoop=1;jettySize=auto;html=1;exitX=0.25;exitY=1;exitDx=0;exitDy=0;entryX=0.11;entryY=-0.002;entryDx=0;entryDy=0;entryPerimeter=0;endArrow=none;endFill=0;" edge="1" parent="WIyWlLk6GJQsqaUBKTNV-1" source="EJpG7dNDgXVxEDcTbUmV-51" target="EJpG7dNDgXVxEDcTbUmV-16">
          <mxGeometry relative="1" as="geometry" />
        </mxCell>
        <mxCell id="EJpG7dNDgXVxEDcTbUmV-51" value="LigneCommande" style="swimlane;fontStyle=2;align=center;verticalAlign=top;childLayout=stackLayout;horizontal=1;startSize=26;horizontalStack=0;resizeParent=1;resizeLast=0;collapsible=1;marginBottom=0;rounded=0;shadow=0;strokeWidth=1;" vertex="1" parent="WIyWlLk6GJQsqaUBKTNV-1">
          <mxGeometry x="150" y="285" width="140" height="85" as="geometry">
            <mxRectangle x="230" y="140" width="160" height="26" as="alternateBounds" />
          </mxGeometry>
        </mxCell>
        <mxCell id="EJpG7dNDgXVxEDcTbUmV-52" value="+ligneID : entier&#xa;+quantité : entier&#xa;+montant : float" style="text;align=left;verticalAlign=top;spacingLeft=4;spacingRight=4;overflow=hidden;rotatable=0;points=[[0,0.5],[1,0.5]];portConstraint=eastwest;" vertex="1" parent="EJpG7dNDgXVxEDcTbUmV-51">
          <mxGeometry y="26" width="140" height="54" as="geometry" />
        </mxCell>
        <mxCell id="EJpG7dNDgXVxEDcTbUmV-53" value="" style="line;html=1;strokeWidth=1;align=left;verticalAlign=middle;spacingTop=-1;spacingLeft=3;spacingRight=3;rotatable=0;labelPosition=right;points=[];portConstraint=eastwest;" vertex="1" parent="EJpG7dNDgXVxEDcTbUmV-51">
          <mxGeometry y="80" width="140" height="2" as="geometry" />
        </mxCell>
        <mxCell id="EJpG7dNDgXVxEDcTbUmV-54" value="1" style="text;html=1;align=center;verticalAlign=middle;resizable=0;points=[];autosize=1;strokeColor=none;fillColor=none;" vertex="1" parent="WIyWlLk6GJQsqaUBKTNV-1">
          <mxGeometry x="489" y="252" width="30" height="30" as="geometry" />
        </mxCell>
        <mxCell id="EJpG7dNDgXVxEDcTbUmV-55" value="0..1" style="text;html=1;align=center;verticalAlign=middle;resizable=0;points=[];autosize=1;strokeColor=none;fillColor=none;" vertex="1" parent="WIyWlLk6GJQsqaUBKTNV-1">
          <mxGeometry x="180" y="260" width="40" height="30" as="geometry" />
        </mxCell>
        <mxCell id="EJpG7dNDgXVxEDcTbUmV-56" value="1..*" style="text;html=1;align=center;verticalAlign=middle;resizable=0;points=[];autosize=1;strokeColor=none;fillColor=none;" vertex="1" parent="WIyWlLk6GJQsqaUBKTNV-1">
          <mxGeometry x="150" y="383" width="40" height="30" as="geometry" />
        </mxCell>
        <mxCell id="EJpG7dNDgXVxEDcTbUmV-57" value="1" style="text;html=1;align=center;verticalAlign=middle;resizable=0;points=[];autosize=1;strokeColor=none;fillColor=none;" vertex="1" parent="WIyWlLk6GJQsqaUBKTNV-1">
          <mxGeometry x="155" y="450" width="30" height="30" as="geometry" />
        </mxCell>
        <mxCell id="EJpG7dNDgXVxEDcTbUmV-58" style="edgeStyle=orthogonalEdgeStyle;rounded=0;orthogonalLoop=1;jettySize=auto;html=1;exitX=0.5;exitY=0;exitDx=0;exitDy=0;entryX=1;entryY=0.688;entryDx=0;entryDy=0;entryPerimeter=0;endArrow=none;endFill=0;" edge="1" parent="WIyWlLk6GJQsqaUBKTNV-1" source="EJpG7dNDgXVxEDcTbUmV-60" target="EJpG7dNDgXVxEDcTbUmV-1">
          <mxGeometry relative="1" as="geometry">
            <Array as="points">
              <mxPoint x="674" y="210" />
            </Array>
          </mxGeometry>
        </mxCell>
        <mxCell id="EJpG7dNDgXVxEDcTbUmV-59" value="Effectuée par" style="edgeStyle=orthogonalEdgeStyle;rounded=0;orthogonalLoop=1;jettySize=auto;html=1;exitX=0.5;exitY=1;exitDx=0;exitDy=0;entryX=0;entryY=0.5;entryDx=0;entryDy=0;endArrow=none;endFill=0;" edge="1" parent="WIyWlLk6GJQsqaUBKTNV-1" source="EJpG7dNDgXVxEDcTbUmV-60" target="EJpG7dNDgXVxEDcTbUmV-5">
          <mxGeometry relative="1" as="geometry" />
        </mxCell>
        <mxCell id="EJpG7dNDgXVxEDcTbUmV-60" value="GestionStock" style="swimlane;fontStyle=2;align=center;verticalAlign=top;childLayout=stackLayout;horizontal=1;startSize=26;horizontalStack=0;resizeParent=1;resizeLast=0;collapsible=1;marginBottom=0;rounded=0;shadow=0;strokeWidth=1;" vertex="1" parent="WIyWlLk6GJQsqaUBKTNV-1">
          <mxGeometry x="604" y="213" width="140" height="108" as="geometry">
            <mxRectangle x="230" y="140" width="160" height="26" as="alternateBounds" />
          </mxGeometry>
        </mxCell>
        <mxCell id="EJpG7dNDgXVxEDcTbUmV-61" value="+gestionID : entier&#xa;+produitID : entier&#xa;+dateInventaire : date&#xa;+qtAjoutée: entier&#xa;+qtSupprimée: entier" style="text;align=left;verticalAlign=top;spacingLeft=4;spacingRight=4;overflow=hidden;rotatable=0;points=[[0,0.5],[1,0.5]];portConstraint=eastwest;" vertex="1" parent="EJpG7dNDgXVxEDcTbUmV-60">
          <mxGeometry y="26" width="140" height="74" as="geometry" />
        </mxCell>
        <mxCell id="EJpG7dNDgXVxEDcTbUmV-62" value="" style="line;html=1;strokeWidth=1;align=left;verticalAlign=middle;spacingTop=-1;spacingLeft=3;spacingRight=3;rotatable=0;labelPosition=right;points=[];portConstraint=eastwest;" vertex="1" parent="EJpG7dNDgXVxEDcTbUmV-60">
          <mxGeometry y="100" width="140" height="8" as="geometry" />
        </mxCell>
        <mxCell id="EJpG7dNDgXVxEDcTbUmV-63" value="1" style="text;html=1;align=center;verticalAlign=middle;resizable=0;points=[];autosize=1;strokeColor=none;fillColor=none;" vertex="1" parent="WIyWlLk6GJQsqaUBKTNV-1">
          <mxGeometry x="550" y="183" width="30" height="30" as="geometry" />
        </mxCell>
        <mxCell id="EJpG7dNDgXVxEDcTbUmV-64" value="*" style="text;html=1;align=center;verticalAlign=middle;resizable=0;points=[];autosize=1;strokeColor=none;fillColor=none;" vertex="1" parent="WIyWlLk6GJQsqaUBKTNV-1">
          <mxGeometry x="650" y="190" width="30" height="30" as="geometry" />
        </mxCell>
        <mxCell id="EJpG7dNDgXVxEDcTbUmV-65" value="1" style="text;html=1;align=center;verticalAlign=middle;resizable=0;points=[];autosize=1;strokeColor=none;fillColor=none;" vertex="1" parent="WIyWlLk6GJQsqaUBKTNV-1">
          <mxGeometry x="722" y="520" width="30" height="30" as="geometry" />
        </mxCell>
        <mxCell id="EJpG7dNDgXVxEDcTbUmV-66" value="*" style="text;html=1;align=center;verticalAlign=middle;resizable=0;points=[];autosize=1;strokeColor=none;fillColor=none;" vertex="1" parent="WIyWlLk6GJQsqaUBKTNV-1">
          <mxGeometry x="670" y="319" width="30" height="30" as="geometry" />
        </mxCell>
        <mxCell id="EJpG7dNDgXVxEDcTbUmV-116" value="provient de" style="edgeStyle=orthogonalEdgeStyle;rounded=0;orthogonalLoop=1;jettySize=auto;html=1;exitX=0;exitY=0.5;exitDx=0;exitDy=0;entryX=0.5;entryY=0;entryDx=0;entryDy=0;endArrow=none;endFill=0;" edge="1" parent="WIyWlLk6GJQsqaUBKTNV-1" source="EJpG7dNDgXVxEDcTbUmV-17" target="EJpG7dNDgXVxEDcTbUmV-20">
          <mxGeometry relative="1" as="geometry">
            <Array as="points">
              <mxPoint x="130" y="533" />
              <mxPoint x="130" y="110" />
              <mxPoint x="822" y="110" />
            </Array>
          </mxGeometry>
        </mxCell>
        <mxCell id="EJpG7dNDgXVxEDcTbUmV-117" value="1" style="text;html=1;align=center;verticalAlign=middle;resizable=0;points=[];autosize=1;strokeColor=none;fillColor=none;" vertex="1" parent="WIyWlLk6GJQsqaUBKTNV-1">
          <mxGeometry x="817" y="95" width="30" height="30" as="geometry" />
        </mxCell>
        <mxCell id="EJpG7dNDgXVxEDcTbUmV-118" value="*" style="text;html=1;align=center;verticalAlign=middle;resizable=0;points=[];autosize=1;strokeColor=none;fillColor=none;" vertex="1" parent="WIyWlLk6GJQsqaUBKTNV-1">
          <mxGeometry x="140" y="510" width="30" height="30" as="geometry" />
        </mxCell>
      </root>
    </mxGraphModel>
  </diagram>
</mxfile>
